<svg width="48" height="49" viewBox="0 0 48 49" fill="none" xmlns="http://www.w3.org/2000/svg">
    <path d="M4.19349 20.4513C3.40242 20.4513 2.62914 20.686 1.97152 21.1257C1.3139 21.5653 0.801516 22.1903 0.499215 22.9213C0.196915 23.6523 0.118293 24.4566 0.273302 25.2323C0.428311 26.008 0.809981 26.7204 1.37 27.2791C1.93002 27.8378 2.64321 28.2178 3.4193 28.371C4.19539 28.5242 4.99949 28.4437 5.72981 28.1397C6.46013 27.8357 7.08384 27.3218 7.52199 26.6632C7.96014 26.0045 8.19303 25.2307 8.19118 24.4397C8.19119 23.9151 8.08772 23.3957 7.8867 22.9112C7.68568 22.4267 7.39107 21.9866 7.01972 21.6161C6.64838 21.2457 6.2076 20.9521 5.72264 20.7522C5.23767 20.5523 4.71803 20.45 4.19349 20.4513ZM4.19349 26.3593C3.81382 26.3593 3.44268 26.2467 3.12699 26.0358C2.81131 25.8248 2.56527 25.525 2.41997 25.1743C2.27468 24.8235 2.23666 24.4375 2.31073 24.0652C2.3848 23.6928 2.56763 23.3507 2.8361 23.0823C3.10456 22.8138 3.44661 22.631 3.81899 22.5569C4.19136 22.4828 4.57733 22.5208 4.9281 22.6661C5.27887 22.8114 5.57868 23.0575 5.78961 23.3732C6.00054 23.6888 6.11313 24.06 6.11313 24.4397C6.11436 24.6921 6.06555 24.9423 5.96952 25.1757C5.87349 25.4092 5.73213 25.6213 5.55363 25.7998C5.37513 25.9783 5.16302 26.1196 4.92956 26.2157C4.6961 26.3117 4.44592 26.3605 4.19349 26.3593Z" fill="black"/>
    <path d="M13.9966 10.4522C13.2087 10.4559 12.4395 10.6924 11.7856 11.1319C11.1317 11.5713 10.6222 12.1942 10.3212 12.9223C10.0201 13.6504 9.94092 14.4512 10.0935 15.2242C10.2461 15.9972 10.6238 16.7078 11.1789 17.2668C11.7341 17.8259 12.4421 18.2084 13.214 18.3664C13.9859 18.5243 14.7872 18.4507 15.5174 18.1547C16.2475 17.8587 16.874 17.3536 17.318 16.7027C17.762 16.0519 18.0038 15.2843 18.0129 14.4965C18.0179 13.9664 17.9176 13.4405 17.7178 12.9495C17.5181 12.4584 17.2229 12.0118 16.8493 11.6357C16.4757 11.2595 16.0312 10.9612 15.5416 10.7581C15.0519 10.5549 14.5268 10.4509 13.9966 10.4522ZM13.9966 16.3602C13.6169 16.3695 13.2431 16.2654 12.9229 16.0612C12.6027 15.857 12.3506 15.562 12.1988 15.2138C12.0471 14.8657 12.0025 14.4802 12.0709 14.1066C12.1393 13.733 12.3174 13.3883 12.5826 13.1164C12.8479 12.8446 13.1881 12.658 13.5599 12.5804C13.9316 12.5028 14.3181 12.5379 14.6699 12.681C15.0217 12.8241 15.3228 13.0688 15.5349 13.3839C15.7469 13.699 15.8602 14.0701 15.8603 14.4499C15.8605 14.9486 15.6656 15.4275 15.3174 15.7845C14.9692 16.1414 14.4951 16.3481 13.9966 16.3602Z" fill="black"/>
    <path d="M4.01629 0.518627C3.22523 0.516783 2.4514 0.749675 1.79276 1.18783C1.13412 1.62598 0.620273 2.24968 0.316267 2.98C0.0122614 3.71032 -0.0682371 4.51442 0.084961 5.29051C0.238159 6.0666 0.618166 6.77979 1.17688 7.33981C1.7356 7.89983 2.4479 8.2815 3.22363 8.43651C3.99936 8.59152 4.80364 8.5129 5.53467 8.2106C6.2657 7.9083 6.8906 7.39591 7.33029 6.73829C7.76997 6.08067 8.00467 5.30739 8.00467 4.51632C8.00468 3.45768 7.58477 2.44226 6.83707 1.69281C6.08937 0.943368 5.07493 0.521094 4.01629 0.518627ZM4.01629 6.42664C3.63389 6.42834 3.25969 6.31578 2.94167 6.1034C2.62366 5.89102 2.37632 5.58849 2.23138 5.23461C2.08644 4.88073 2.05049 4.49163 2.12815 4.11719C2.20581 3.74274 2.39354 3.40003 2.66726 3.13298C2.94098 2.86593 3.28823 2.68672 3.66448 2.61833C4.04072 2.54994 4.42882 2.59548 4.77901 2.74912C5.12921 2.90275 5.42553 3.15748 5.63 3.48064C5.83446 3.8038 5.93775 4.18067 5.92662 4.56292C5.91445 5.06145 5.70783 5.53546 5.35089 5.8837C4.99394 6.23194 4.51497 6.42679 4.01629 6.42664Z" fill="black"/>
    <path d="M13.9968 30.4408C13.2057 30.439 12.4319 30.6719 11.7732 31.11C11.1146 31.5482 10.6007 32.1719 10.2967 32.9022C9.99273 33.6325 9.91223 34.4366 10.0654 35.2127C10.2186 35.9888 10.5986 36.702 11.1573 37.262C11.7161 37.822 12.4284 38.2037 13.2041 38.3587C13.9798 38.5137 14.7841 38.4351 15.5151 38.1328C16.2462 37.8305 16.8711 37.3181 17.3108 36.6605C17.7504 36.0029 17.9851 35.2296 17.9851 34.4385C17.9827 33.3806 17.562 32.3666 16.8148 31.6177C16.0677 30.8688 15.0546 30.4457 13.9968 30.4408ZM13.9968 36.3488C13.6145 36.36 13.2376 36.2567 12.9145 36.0522C12.5913 35.8477 12.3366 35.5514 12.183 35.2012C12.0293 34.851 11.9838 34.4629 12.0522 34.0867C12.1206 33.7104 12.2998 33.3632 12.5668 33.0895C12.8339 32.8157 13.1766 32.628 13.551 32.5504C13.9255 32.4727 14.3146 32.5086 14.6685 32.6536C15.0223 32.7985 15.3249 33.0459 15.5372 33.3639C15.7496 33.6819 15.8622 34.0561 15.8605 34.4385C15.8606 34.9372 15.6658 35.4161 15.3175 35.7731C14.9693 36.13 14.4953 36.3367 13.9968 36.3488Z" fill="black"/>
    <path d="M4.45449 40.011C3.66382 40.011 2.8909 40.2455 2.23348 40.6847C1.57607 41.124 1.06367 41.7484 0.761095 42.4788C0.458519 43.2093 0.379352 44.0131 0.533604 44.7886C0.687856 45.5641 1.0686 46.2764 1.62769 46.8355C2.18678 47.3946 2.8991 47.7753 3.67457 47.9296C4.45005 48.0838 5.25385 48.0047 5.98434 47.7021C6.71482 47.3995 7.33918 46.8871 7.77845 46.2297C8.21772 45.5723 8.45218 44.7994 8.45218 44.0087C8.45218 43.4837 8.34878 42.9639 8.14788 42.4788C7.94697 41.9938 7.6525 41.5531 7.28128 41.1819C6.91006 40.8107 6.46936 40.5162 5.98434 40.3153C5.49932 40.1144 4.97947 40.011 4.45449 40.011ZM4.45449 45.919C4.07208 45.9207 3.69788 45.8082 3.37986 45.5958C3.06185 45.3834 2.81452 45.0809 2.66957 44.727C2.52463 44.3731 2.48868 43.984 2.56634 43.6096C2.644 43.2351 2.83173 42.8924 3.10545 42.6254C3.37917 42.3583 3.72642 42.1791 4.10267 42.1107C4.47891 42.0423 4.86701 42.0879 5.21721 42.2415C5.5674 42.3951 5.86372 42.6499 6.06819 42.973C6.27265 43.2962 6.37594 43.673 6.36481 44.0553C6.35264 44.5538 6.14602 45.0278 5.78908 45.3761C5.43213 45.7243 4.95316 45.9192 4.45449 45.919Z" fill="black"/>
    <path d="M44.0026 20.4513C43.2112 20.4494 42.437 20.6826 41.7781 21.1211C41.1193 21.5597 40.6054 22.1839 40.3017 22.9148C39.998 23.6457 39.918 24.4502 40.072 25.2266C40.2259 26.0029 40.6069 26.7161 41.1665 27.2758C41.7262 27.8354 42.4393 28.2163 43.2157 28.3703C43.992 28.5243 44.7966 28.4443 45.5275 28.1406C46.2583 27.8368 46.8826 27.323 47.3211 26.6642C47.7597 26.0053 47.9928 25.2311 47.991 24.4397C47.991 23.3819 47.5708 22.3674 46.8228 21.6194C46.0749 20.8715 45.0604 20.4513 44.0026 20.4513ZM44.0026 26.3593C43.6208 26.3704 43.2443 26.2674 42.9213 26.0633C42.5984 25.8593 42.3436 25.5635 42.1897 25.2138C42.0358 24.8642 41.9898 24.4766 42.0574 24.1006C42.125 23.7246 42.3033 23.3774 42.5694 23.1033C42.8355 22.8292 43.1773 22.6407 43.5512 22.562C43.925 22.4833 44.3138 22.5179 44.6678 22.6614C45.0219 22.8049 45.325 23.0508 45.5385 23.3676C45.752 23.6844 45.8662 24.0576 45.8663 24.4397C45.8689 24.9399 45.6752 25.4213 45.3267 25.7802C44.9782 26.1392 44.5028 26.3471 44.0026 26.3593Z" fill="black"/>
    <path d="M44.0026 0.518688C43.2116 0.516844 42.4377 0.749736 41.7791 1.18789C41.1204 1.62604 40.6066 2.24974 40.3026 2.98006C39.9986 3.71038 39.9181 4.51448 40.0713 5.29057C40.2245 6.06666 40.6045 6.77985 41.1632 7.33987C41.7219 7.89989 42.4342 8.28156 43.21 8.43657C43.9857 8.59158 44.79 8.51296 45.521 8.21066C46.252 7.90836 46.8769 7.39597 47.3166 6.73835C47.7563 6.08073 47.991 5.30745 47.991 4.51638C47.991 3.45774 47.5711 2.44232 46.8234 1.69288C46.0757 0.943429 45.0613 0.521155 44.0026 0.518688ZM44.0026 6.42671C43.6184 6.43774 43.2397 6.33319 42.9156 6.12658C42.5915 5.91997 42.3369 5.62082 42.1847 5.26786C42.0325 4.9149 41.9898 4.52439 42.0621 4.14688C42.1344 3.76937 42.3183 3.42225 42.5901 3.15047C42.8619 2.87868 43.209 2.69474 43.5865 2.62246C43.964 2.55018 44.3545 2.5929 44.7075 2.74507C45.0605 2.89725 45.3596 3.15187 45.5662 3.47599C45.7728 3.8001 45.8774 4.17877 45.8664 4.56298C45.8545 5.05355 45.6544 5.52075 45.3074 5.86774C44.9604 6.21473 44.4932 6.41488 44.0026 6.42671Z" fill="black"/>
    <path d="M44.0026 39.7408C43.2116 39.739 42.4377 39.9719 41.7791 40.41C41.1204 40.8482 40.6066 41.4719 40.3026 42.2022C39.9986 42.9325 39.9181 43.7366 40.0713 44.5127C40.2245 45.2888 40.6045 46.002 41.1632 46.562C41.7219 47.122 42.4342 47.5037 43.21 47.6587C43.9857 47.8137 44.79 47.7351 45.521 47.4328C46.252 47.1305 46.8769 46.6181 47.3166 45.9605C47.7563 45.3029 47.991 44.5296 47.991 43.7385C47.991 42.6799 47.5711 41.6645 46.8234 40.915C46.0757 40.1656 45.0613 39.7433 44.0026 39.7408ZM44.0026 45.6489C43.6184 45.6599 43.2397 45.5553 42.9156 45.3487C42.5915 45.1421 42.3369 44.843 42.1847 44.49C42.0325 44.1371 41.9898 43.7465 42.0621 43.369C42.1344 42.9915 42.3183 42.6444 42.5901 42.3726C42.8619 42.1008 43.209 41.9169 43.5865 41.8446C43.964 41.7723 44.3545 41.815 44.7075 41.9672C45.0605 42.1194 45.3596 42.374 45.5662 42.6981C45.7728 43.0223 45.8774 43.4009 45.8664 43.7851C45.8545 44.2757 45.6544 44.7429 45.3074 45.0899C44.9604 45.4369 44.4932 45.637 44.0026 45.6489Z" fill="black"/>
    <path d="M38.0761 35.3703C38.0761 35.3144 38.0761 35.2678 38.0761 35.2119C38.134 34.9489 38.159 34.6797 38.1506 34.4105C38.1506 34.28 38.1506 34.1589 38.1506 34.0284C38.1506 33.898 38.1506 33.9632 38.1506 33.9259C38.1551 33.8452 38.1551 33.7644 38.1506 33.6837V33.5439L38.0947 33.3482C38.0661 33.2408 38.0319 33.1351 37.9922 33.0313C37.9959 33.0004 37.9959 32.9691 37.9922 32.9382V32.8543L37.927 32.7145C37.733 32.3153 37.4713 31.9527 37.1535 31.6429C36.9698 31.4636 36.7702 31.3014 36.5571 31.1583C35.8976 30.7201 35.1218 30.4896 34.33 30.4967C33.1189 30.3511 31.9943 29.7954 31.143 28.9218L29.2793 27.0581C28.9631 26.7246 28.7175 26.3306 28.5574 25.8999C28.3973 25.4691 28.3258 25.0104 28.3474 24.5514V24.4302C28.4929 23.2192 29.0487 22.0945 29.9222 21.2433L31.786 19.3795C32.1188 19.0624 32.5127 18.8163 32.9436 18.6561C33.3745 18.4959 33.8335 18.425 34.2927 18.4477H34.3952H34.6188H34.4977H34.7213H34.8425L35.0568 18.4011H35.1407L35.5693 18.2706H35.6439L35.8489 18.1774H35.9514L36.1378 18.0656L36.2216 18.019C36.4979 17.8496 36.7543 17.6495 36.9858 17.4226L37.0417 17.3481C37.1305 17.253 37.2145 17.1534 37.2933 17.0499L37.4051 16.9008C37.4797 16.789 37.5542 16.6771 37.6194 16.556C37.6466 16.5188 37.6686 16.478 37.6847 16.4348C37.7368 16.3382 37.7835 16.2386 37.8245 16.1367C37.8297 16.1027 37.8297 16.0681 37.8245 16.0341L37.8804 15.885C37.9306 15.7356 37.971 15.5831 38.0015 15.4284C38.0599 15.1655 38.085 14.8962 38.0761 14.627C38.0761 14.5152 38.0761 14.3941 38.0761 14.2822C38.0761 14.1704 38.0761 14.1984 38.0761 14.1518C38.0813 14.0804 38.0813 14.0088 38.0761 13.9375V13.7884L38.0201 13.5647C38.0201 13.4902 38.0201 13.4063 37.9456 13.3317C37.9198 13.2775 37.898 13.2214 37.8804 13.164V13.0988L37.8245 12.987L37.7219 12.6328L37.6194 12.4558C37.6075 12.426 37.5918 12.3978 37.5728 12.3719C37.4053 12.0918 37.2016 11.8349 36.9671 11.6078C36.7817 11.4321 36.5788 11.276 36.3614 11.1419C35.7019 10.7036 34.9261 10.4732 34.1343 10.4802C32.9294 10.3321 31.8115 9.77638 30.9659 8.90539L29.1022 7.04166C28.7847 6.7091 28.5383 6.3153 28.378 5.8843C28.2178 5.45331 28.1471 4.99417 28.1703 4.53494V4.44176C28.1539 3.52973 27.8261 2.65074 27.2414 1.95069C26.6566 1.25063 25.85 0.771619 24.9554 0.593159C24.6916 0.540232 24.423 0.515244 24.154 0.51861C23.3591 0.527615 22.5844 0.770708 21.9269 1.21751C21.7217 1.36691 21.5286 1.53203 21.3491 1.7114C20.6117 2.45461 20.1995 3.46007 20.2029 4.50699C20.2078 5.02856 20.3157 5.54401 20.5204 6.02376C20.7251 6.50351 21.0226 6.9381 21.3957 7.30258C21.5796 7.47886 21.7792 7.63794 21.9921 7.77783C22.6528 8.24068 23.4405 8.48803 24.2472 8.48605C25.4601 8.6319 26.5856 9.19138 27.4342 10.0702L29.2979 11.9339C29.615 12.2668 29.8611 12.6607 30.0213 13.0916C30.1815 13.5225 30.2524 13.9815 30.2298 14.4407V14.4966C30.0836 15.7047 29.5278 16.8263 28.6549 17.6742L26.7912 19.538C26.4583 19.855 26.0645 20.1012 25.6335 20.2614C25.2026 20.4215 24.7436 20.4925 24.2845 20.4698H24.182C23.1292 20.4828 22.1243 20.9116 21.3864 21.6626L21.172 21.9515L21.0975 22.0354L20.9204 22.287L20.8179 22.4454C20.7434 22.5665 20.6782 22.697 20.6129 22.8274L20.5291 23.0045C20.525 23.026 20.525 23.0482 20.5291 23.0697L20.4452 23.284C20.4452 23.4052 20.38 23.517 20.352 23.6288V23.7407C20.2991 24.0044 20.2741 24.2731 20.2775 24.5421V24.5887C20.2775 24.6818 20.2775 24.7843 20.2775 24.8775C20.2815 24.9365 20.2815 24.9956 20.2775 25.0546V25.213C20.2731 25.2813 20.2731 25.3497 20.2775 25.418C20.3274 25.6347 20.396 25.8468 20.4825 26.0517C20.7182 26.5343 21.0476 26.9651 21.4516 27.319C21.6355 27.4953 21.8351 27.6544 22.048 27.7943C22.6963 28.2364 23.4625 28.4734 24.2472 28.4745C25.459 28.6241 26.5834 29.183 27.4342 30.0587L29.2979 31.9224C29.6141 32.2559 29.8596 32.6499 30.0198 33.0806C30.1799 33.5114 30.2513 33.9701 30.2298 34.4291V34.541C30.0836 35.7491 29.5278 36.8707 28.6549 37.7186L26.7912 39.5823C26.4596 39.9013 26.0659 40.1486 25.6347 40.3089C25.2035 40.4692 24.7439 40.5391 24.2845 40.5142H24.2472C23.3289 40.519 22.4407 40.842 21.7338 41.4282C21.027 42.0145 20.5452 42.8276 20.3706 43.7291C20.3177 43.9929 20.2927 44.2615 20.2961 44.5305C20.3036 45.3228 20.5469 46.0949 20.995 46.7484C21.1419 46.9583 21.3072 47.1548 21.4889 47.3355C21.8545 47.6993 22.2884 47.9875 22.7655 48.1835C23.2599 48.3831 23.7885 48.4844 24.3217 48.4817C24.8507 48.4753 25.3733 48.3644 25.8593 48.1555C26.3308 47.9458 26.7602 47.6521 27.1267 47.2889C27.3029 47.105 27.462 46.9053 27.6019 46.6925C28.0441 46.0313 28.2748 45.2513 28.2635 44.456C28.3965 43.2278 28.9534 42.0844 29.8384 41.2224L31.7021 39.3587C32.0365 39.0438 32.4306 38.7991 32.8612 38.6391C33.2917 38.479 33.7499 38.4069 34.2088 38.4268H34.3113C35.3643 38.4148 36.3696 37.9859 37.1069 37.2341C37.1802 37.1576 37.2487 37.0767 37.3119 36.9918L37.3678 36.9265C37.4424 36.8427 37.4983 36.7495 37.5635 36.6656L37.6381 36.5445C37.7279 36.4005 37.8088 36.2511 37.8804 36.0972C37.8804 36.0972 37.8804 36.004 37.9456 35.9481C38.0108 35.8922 37.9456 35.9481 37.9456 35.9015C37.9777 35.8222 38.0057 35.7413 38.0295 35.6592C38.0295 35.566 38.0481 35.4635 38.0761 35.3703Z" fill="black"/>
</svg>

